<?xml version="1.0" standalone="no"?>
<!DOCTYPE svg PUBLIC "-//W3C//DTD SVG 20010904//EN"
 "http://www.w3.org/TR/2001/REC-SVG-20010904/DTD/svg10.dtd">
<svg version="1.0" xmlns="http://www.w3.org/2000/svg"
 width="1080.000000pt" height="1080.000000pt" viewBox="0 0 1080.000000 1080.000000"
 preserveAspectRatio="xMidYMid meet">

<g transform="translate(0.000000,1080.000000) scale(0.100000,-0.100000)"
fill="#162c8f" stroke="none">
<path d="M5225 9889 c-300 -267 -1460 -1407 -3133 -3081 l-1402 -1403 2312
-2312 2312 -2312 415 409 c229 225 1271 1264 2316 2310 l1900 1900 -1520 1518
c-1623 1620 -2069 2062 -2560 2536 -335 324 -533 506 -550 506 -5 0 -46 -32
-90 -71z m181 -1575 c38 -28 48 -47 40 -77 -15 -60 -210 -175 -426 -252 -153
-54 -353 -154 -445 -222 -325 -242 -457 -570 -501 -1240 -4 -56 -7 -412 -9
-790 -2 -708 -4 -758 -46 -1012 -28 -171 -61 -278 -119 -396 -62 -126 -130
-211 -217 -268 -139 -91 -283 -127 -512 -127 -311 0 -405 78 -564 465 -126
306 -174 594 -164 970 6 240 31 410 91 649 61 238 121 399 236 631 222 449
480 766 849 1043 389 292 1002 554 1511 646 14 2 75 3 137 3 95 -2 116 -5 139
-23z m1318 -424 c246 -83 540 -316 818 -650 164 -196 241 -316 354 -549 58
-118 103 -215 102 -216 -2 -2 -207 -94 -456 -204 -249 -111 -526 -238 -615
-282 -1179 -590 -1917 -1373 -2007 -2129 -20 -167 7 -305 91 -477 71 -145 175
-285 339 -458 271 -284 362 -417 304 -439 -69 -26 -361 -13 -632 30 -563 88
-1259 397 -1562 693 -138 135 -159 231 -62 280 47 23 79 29 228 40 236 19 502
135 712 313 158 134 213 216 252 373 36 147 41 253 50 1030 5 424 14 842 19
930 54 799 188 1117 565 1340 155 91 603 280 832 350 162 50 264 65 424 61
134 -3 153 -5 244 -36z m1348 -2111 c30 -13 72 -73 98 -139 115 -291 -138
-1363 -423 -1791 -168 -252 -476 -583 -751 -808 -98 -80 -238 -168 -290 -182
-144 -39 -470 155 -768 457 -161 164 -259 300 -307 429 -73 194 29 453 304
773 150 174 394 387 648 565 240 168 472 301 827 472 447 217 581 262 662 224z"/>
</g>
</svg>
